<svg width="190" height="48" viewBox="0 0 190 48" fill="none" xmlns="http://www.w3.org/2000/svg">
    <path
        d="M21.9072 9.60944V3.6438H2.90723V44.6313H21.9072V38.6656C18.0151 38.6656 14.2823 37.1349 11.5302 34.4104C8.778 31.6858 7.23185 27.9906 7.23185 24.1375C7.23185 20.2844 8.778 16.5891 11.5302 13.8646C14.2823 11.1401 18.0151 9.60944 21.9072 9.60944Z"
        fill="#731632" />
    <path
        d="M21.9072 9.60938V38.6656C25.7994 38.6656 29.5322 37.1349 32.2843 34.4103C35.0365 31.6858 36.5826 27.9906 36.5826 24.1375C36.5826 20.2844 35.0365 16.589 32.2843 13.8646C29.5322 11.14 25.7994 9.60938 21.9072 9.60938Z"
        fill="#731632" />
    <path d="M47.2451 13.259H51.4988V33.5422H47.2451V13.259Z" fill="#731632" />
    <path
        d="M53.8806 26.5935C53.8806 25.1343 54.3183 23.7078 55.1381 22.4951C55.9579 21.2823 57.123 20.3377 58.4858 19.7812C59.8485 19.2248 61.3474 19.0813 62.7925 19.3691C64.2377 19.6568 65.564 20.3629 66.6033 21.3977C67.6427 22.4326 68.3483 23.7495 68.6308 25.1818C68.9131 26.6142 68.7597 28.0972 68.1897 29.443C67.6197 30.7887 66.659 31.9368 65.4293 32.7414C64.1995 33.5461 62.7561 33.9711 61.282 33.9628C60.3044 33.9704 59.335 33.7847 58.4308 33.4164C57.5266 33.0482 56.7056 32.505 56.0162 31.8187C55.3268 31.1323 54.7829 30.3165 54.4161 29.4193C54.0494 28.522 53.8674 27.5614 53.8806 26.5935ZM64.5432 26.5935C64.5265 25.9644 64.3228 25.3541 63.9575 24.8391C63.5922 24.3239 63.0818 23.9268 62.4897 23.6975C61.8977 23.4681 61.2506 23.4166 60.6292 23.5495C60.0078 23.6823 59.4398 23.9935 58.9961 24.4444C58.5524 24.8951 58.2528 25.4653 58.1349 26.0837C58.0169 26.7022 58.0856 27.3413 58.3326 27.9211C58.5796 28.501 58.9938 28.9961 59.5236 29.344C60.0531 29.6922 60.6746 29.8779 61.3104 29.8781C61.7433 29.8866 62.1732 29.8064 62.5733 29.6427C62.9735 29.4792 63.3352 29.2357 63.6359 28.9274C63.9367 28.6192 64.1699 28.2527 64.3212 27.8512C64.4725 27.4496 64.5384 27.0215 64.5149 26.5935H64.5432Z"
        fill="#731632" />
    <path
        d="M85.5146 19.6461V32.8547C85.5146 37.515 81.828 39.4942 78.0989 39.4942C76.7835 39.601 75.4641 39.3423 74.2894 38.7471C73.1145 38.152 72.1308 37.2439 71.4489 36.1253L75.0362 34.076C75.3269 34.6562 75.7893 35.1349 76.3618 35.4483C76.9344 35.7618 77.5897 35.8951 78.2407 35.8306C78.6554 35.8811 79.0763 35.8404 79.4731 35.7112C79.8702 35.582 80.2333 35.3676 80.5367 35.0832C80.8403 34.7988 81.0765 34.4517 81.2287 34.0664C81.3808 33.6812 81.445 33.2674 81.4168 32.8547V31.5774C80.9218 32.1716 80.2937 32.6432 79.5825 32.9551C78.8711 33.267 78.0962 33.4105 77.319 33.3741C75.4388 33.3741 73.6356 32.6347 72.306 31.3184C70.9764 30.0023 70.2295 28.2171 70.2295 26.3557C70.2295 24.4943 70.9764 22.7092 72.306 21.393C73.6356 20.0768 75.4388 19.3373 77.319 19.3373C78.0962 19.301 78.8711 19.4444 79.5825 19.7563C80.2937 20.0682 80.9218 20.5398 81.4168 21.134V19.7303L85.5146 19.6461ZM81.4168 26.3136C81.445 25.6421 81.2698 24.9774 80.9135 24.4053C80.5571 23.8332 80.0362 23.3796 79.4173 23.103C78.7985 22.8263 78.1104 22.7393 77.4411 22.853C76.772 22.9667 76.1524 23.2759 75.6622 23.7409C75.172 24.206 74.8336 24.8056 74.6904 25.4627C74.5472 26.1198 74.6057 26.804 74.8585 27.4278C75.1115 28.0516 75.5471 28.5863 76.1093 28.963C76.6716 29.3398 77.3349 29.5415 78.0138 29.5421C78.4569 29.5736 78.9017 29.5129 79.3194 29.3638C79.7373 29.2146 80.119 28.9803 80.4396 28.676C80.7603 28.3718 81.013 28.0043 81.1813 27.5974C81.3496 27.1905 81.4299 26.7531 81.4168 26.3136Z"
        fill="#731632" />
    <path
        d="M87.9106 26.594C87.9106 25.1358 88.3477 23.7105 89.1662 22.4983C89.9848 21.2861 91.1482 20.3415 92.5092 19.7843C93.8703 19.2269 95.3677 19.0817 96.8122 19.3672C98.2566 19.6528 99.5829 20.356 100.623 21.388C101.664 22.4201 102.372 23.7345 102.657 25.1649C102.943 26.5954 102.794 28.0775 102.228 29.4238C101.662 30.7702 100.706 31.9201 99.4801 32.7282C98.254 33.5363 96.8134 33.9661 95.3405 33.9633C94.361 33.9727 93.3893 33.7884 92.4827 33.4212C91.5761 33.054 90.7526 32.5113 90.0606 31.8249C89.3685 31.1385 88.8219 30.3223 88.4527 29.4241C88.0836 28.5258 87.8993 27.5636 87.9106 26.594ZM98.5733 26.594C98.5566 25.9643 98.3524 25.3534 97.9866 24.838C97.6208 24.3227 97.1093 23.9256 96.5165 23.6966C95.9237 23.4677 95.2758 23.417 94.6541 23.5511C94.0323 23.685 93.4643 23.9977 93.0212 24.4498C92.5781 24.902 92.2797 25.4735 92.1634 26.0928C92.047 26.7121 92.1177 27.3517 92.3669 27.9312C92.616 28.511 93.0324 29.0049 93.564 29.3513C94.0954 29.6976 94.7183 29.8811 95.3547 29.8786C95.7876 29.887 96.2175 29.8068 96.6176 29.6432C97.0177 29.4796 97.3795 29.2361 97.6802 28.9279C97.9809 28.6196 98.2142 28.2531 98.3655 27.8517C98.5168 27.4501 98.5827 27.0219 98.5592 26.594H98.5733Z"
        fill="#731632" />
    <path
        d="M104.741 15.926C104.741 15.4319 104.889 14.9488 105.167 14.5379C105.444 14.127 105.838 13.8068 106.299 13.6177C106.76 13.4286 107.268 13.3791 107.758 13.4755C108.247 13.5719 108.697 13.8099 109.05 14.1593C109.403 14.5087 109.643 14.954 109.74 15.4385C109.838 15.9232 109.788 16.4256 109.597 16.8822C109.406 17.3387 109.082 17.7289 108.667 18.0035C108.252 18.278 107.764 18.4246 107.265 18.4246C106.598 18.4173 105.96 18.1517 105.489 17.6847C105.017 17.2177 104.749 16.5865 104.741 15.926ZM105.152 19.6458H109.406V33.5422H105.152V19.6458Z"
        fill="#731632" />
    <path
        d="M127.612 26.5944C127.659 27.5186 127.522 28.443 127.207 29.3144C126.893 30.1859 126.407 30.9871 125.779 31.6719C125.15 32.3569 124.391 32.9119 123.545 33.3052C122.699 33.6986 121.782 33.9223 120.848 33.9637C120.056 34.0159 119.262 33.8903 118.525 33.5962C117.789 33.302 117.129 32.8471 116.595 32.2653V39.1293H112.341V19.6462H116.595V20.9516C117.129 20.3715 117.79 19.9186 118.526 19.6269C119.263 19.3351 120.057 19.2122 120.848 19.2672C121.778 19.3086 122.691 19.5311 123.534 19.9217C124.378 20.3124 125.135 20.8637 125.763 21.5441C126.391 22.2245 126.878 23.0206 127.195 23.8873C127.512 24.7538 127.654 25.6736 127.612 26.5944ZM123.358 26.5944C123.341 25.9424 123.13 25.3099 122.752 24.7761C122.374 24.2422 121.845 23.8307 121.231 23.5933C120.618 23.3558 119.947 23.303 119.303 23.4413C118.659 23.5796 118.071 23.903 117.612 24.3708C117.153 24.8387 116.844 25.4302 116.723 26.0714C116.602 26.7124 116.676 27.3746 116.933 27.9748C117.191 28.5748 117.622 29.0863 118.172 29.4451C118.722 29.8039 119.367 29.9938 120.026 29.9913C120.477 30.0103 120.927 29.9346 121.347 29.7692C121.767 29.6039 122.146 29.3526 122.461 29.0319C122.775 28.7111 123.018 28.3281 123.173 27.9081C123.327 27.488 123.39 27.0403 123.358 26.5944Z"
        fill="#731632" />
    <path
        d="M140.558 29.3731C140.558 32.5735 137.722 33.9351 134.716 33.9351C133.49 34.0443 132.259 33.787 131.182 33.1964C130.106 32.6059 129.232 31.7093 128.676 30.6224L132.334 28.573C132.479 29.0738 132.793 29.5102 133.224 29.8092C133.655 30.1082 134.177 30.2515 134.702 30.2153C135.709 30.2153 136.219 29.9065 136.219 29.345C136.219 27.815 129.314 28.6292 129.314 23.8145C129.314 20.7826 131.894 19.2666 134.815 19.2666C135.926 19.2173 137.029 19.4668 138.007 19.9882C138.986 20.5097 139.804 21.2838 140.374 22.2284L136.715 24.1374C136.554 23.7752 136.29 23.4673 135.955 23.2505C135.62 23.0338 135.229 22.9177 134.83 22.9162C134.092 22.9162 133.653 23.1969 133.653 23.6882C133.653 25.2884 140.558 24.2356 140.558 29.3731Z"
        fill="#731632" />
    <path
        d="M155.97 19.6458V33.5422H151.716V32.2368C151.232 32.8147 150.619 33.2718 149.925 33.5718C149.23 33.8718 148.475 34.0058 147.717 33.9633C144.882 33.9633 142.457 31.956 142.457 28.2082V19.6458H146.711V27.5765C146.677 27.9081 146.716 28.2429 146.827 28.5579C146.938 28.8727 147.115 29.1602 147.347 29.4005C147.581 29.6407 147.865 29.8279 148.178 29.9493C148.492 30.0706 148.828 30.1231 149.164 30.1032C150.695 30.1032 151.773 29.2048 151.773 27.2958V19.6458H155.97Z"
        fill="#731632" />
    <path
        d="M180.074 25.0078V33.5422H175.82V25.3727C175.82 23.9691 175.154 23.0988 173.807 23.0988C172.46 23.0988 171.609 24.0673 171.609 25.7096V33.5422H167.356V25.3727C167.356 23.9691 166.689 23.0988 165.342 23.0988C163.995 23.0988 163.144 24.0673 163.144 25.7096V33.5422H158.891V19.6457H163.144V20.9231C163.585 20.3588 164.16 19.9119 164.819 19.6227C165.477 19.3335 166.199 19.2111 166.916 19.2667C167.635 19.2295 168.352 19.3783 168.996 19.6982C169.64 20.0181 170.189 20.4983 170.588 21.0915C171.056 20.4716 171.675 19.9792 172.386 19.6602C173.097 19.341 173.879 19.2057 174.658 19.2667C177.976 19.2667 180.074 21.5407 180.074 25.0078Z"
        fill="#731632" />
    <path
        d="M183.648 19.5614C185.37 19.5614 186.767 18.1788 186.767 16.4734C186.767 14.7679 185.37 13.3853 183.648 13.3853C181.925 13.3853 180.528 14.7679 180.528 16.4734C180.528 18.1788 181.925 19.5614 183.648 19.5614Z"
        fill="#731632" />
</svg>
    