<svg width="32" height="57" viewBox="0 0 32 57" fill="none" xmlns="http://www.w3.org/2000/svg">
    <path
        d="M30.6317 15.5223C30.3304 15.221 29.9286 15.0201 29.4933 15.0201C29.3594 15.0201 29.2255 15.0536 29.0915 15.0871L15.8326 18.3683L21.558 2.86607C21.6585 2.66518 21.7255 2.46428 21.7255 2.26339C21.7255 1.4933 21.0558 0.85714 20.2188 0.85714H9.23662C8.53349 0.85714 7.93082 1.29241 7.7634 1.92857L1.03349 29.5513C0.933047 30.0201 1.06698 30.5223 1.46876 30.8571C1.73662 31.0915 2.1384 31.2254 2.50671 31.2254C2.64064 31.2254 2.77457 31.2254 2.90849 31.192L16.5022 27.8103L9.90626 54.8638C9.73885 55.567 10.1741 56.2701 10.9107 56.5045C11.0781 56.5379 11.2455 56.5714 11.3795 56.5714C11.9822 56.5714 12.5179 56.2366 12.7857 55.7344L30.8661 16.9955C31.1005 16.4933 31 15.9241 30.6317 15.5223Z"
        fill="#DB2750" />
</svg>
    