<svg width="60" height="55" viewBox="0 0 60 55" fill="none" xmlns="http://www.w3.org/2000/svg">
    <path
        d="M22.2994 15.6763C20.9601 17.7299 19.4311 20.7768 17.7123 24.817C17.2212 23.8125 16.8083 23.0089 16.4735 22.4062C16.1386 21.7812 15.6811 21.067 15.1007 20.2634C14.5427 19.4598 13.9735 18.8348 13.3931 18.3884C12.8351 17.9196 12.132 17.529 11.2837 17.2165C10.4578 16.8817 9.55383 16.7143 8.57168 16.7143H1.07168C0.759184 16.7143 0.502488 16.6138 0.301595 16.4129C0.100702 16.2121 0.000255585 15.9554 0.000255585 15.6429V9.21428C0.000255585 8.90178 0.100702 8.64509 0.301595 8.44419C0.502488 8.2433 0.759184 8.14286 1.07168 8.14286H8.57168C14.152 8.14286 18.7279 10.654 22.2994 15.6763ZM59.6989 41.6585C59.8998 41.8594 60.0003 42.1161 60.0003 42.4286C60.0003 42.7411 59.8998 42.9978 59.6989 43.1987L48.9846 53.9129C48.7837 54.1138 48.527 54.2143 48.2145 54.2143C47.9244 54.2143 47.6677 54.1027 47.4445 53.8795C47.2436 53.6786 47.1431 53.433 47.1431 53.1429V46.7143C46.4288 46.7143 45.4802 46.7254 44.2971 46.7478C43.1141 46.7478 42.2101 46.7589 41.5851 46.7812C40.9601 46.7812 40.1453 46.7701 39.1409 46.7478C38.1364 46.7031 37.344 46.6473 36.7636 46.5804C36.1833 46.4911 35.469 46.3683 34.6208 46.2121C33.7726 46.0558 33.0695 45.8549 32.5114 45.6094C31.9534 45.3415 31.3061 45.0179 30.5695 44.6384C29.8328 44.2589 29.1744 43.8125 28.594 43.2991C28.0137 42.7857 27.3998 42.1942 26.7525 41.5246C26.1052 40.8326 25.4802 40.0513 24.8775 39.1808C26.1945 37.1049 27.7123 34.058 29.4311 30.0402C29.9221 31.0446 30.3351 31.8594 30.6699 32.4844C31.0047 33.0871 31.4511 33.7902 32.0092 34.5938C32.5895 35.3973 33.1587 36.0335 33.7168 36.5022C34.2971 36.9487 35.0003 37.3393 35.8261 37.6741C36.6744 37.9866 37.5895 38.1429 38.5717 38.1429H47.1431V31.7143C47.1431 31.4018 47.2436 31.1451 47.4445 30.9442C47.6453 30.7433 47.902 30.6429 48.2145 30.6429C48.4824 30.6429 48.7503 30.7545 49.0181 30.9777L59.6989 41.6585ZM59.6989 11.6585C59.8998 11.8594 60.0003 12.1161 60.0003 12.4286C60.0003 12.7411 59.8998 12.9978 59.6989 13.1987L48.9846 23.9129C48.7837 24.1138 48.527 24.2143 48.2145 24.2143C47.9244 24.2143 47.6677 24.1138 47.4445 23.9129C47.2436 23.6897 47.1431 23.433 47.1431 23.1429V16.7143H38.5717C37.5003 16.7143 36.5293 16.8817 35.6587 17.2165C34.7882 17.5513 34.0181 18.0536 33.3485 18.7232C32.6788 19.3929 32.1096 20.0848 31.6409 20.7991C31.1721 21.4911 30.6699 22.3504 30.1342 23.3772C29.4199 24.7612 28.5494 26.6696 27.5226 29.1027C26.8753 30.5759 26.3172 31.8147 25.8485 32.8192C25.402 33.8237 24.7994 34.9955 24.0404 36.3348C23.3038 37.6741 22.5895 38.7902 21.8976 39.683C21.2279 40.5759 20.402 41.5022 19.4199 42.4621C18.4601 43.4219 17.4556 44.192 16.4065 44.7723C15.3797 45.3304 14.1967 45.7991 12.8574 46.1786C11.5181 46.5357 10.0895 46.7143 8.57168 46.7143H1.07168C0.759184 46.7143 0.502488 46.6138 0.301595 46.4129C0.100702 46.2121 0.000255585 45.9554 0.000255585 45.6429V39.2143C0.000255585 38.9018 0.100702 38.6451 0.301595 38.4442C0.502488 38.2433 0.759184 38.1429 1.07168 38.1429H8.57168C9.64311 38.1429 10.6141 37.9754 11.4846 37.6406C12.3552 37.3058 13.1253 36.8036 13.7949 36.1339C14.4645 35.4643 15.0337 34.7835 15.5025 34.0915C15.9712 33.3772 16.4735 32.5067 17.0092 31.4799C17.7235 30.096 18.594 28.1875 19.6208 25.7545C20.2681 24.2812 20.815 23.0424 21.2614 22.0379C21.7302 21.0335 22.3328 19.8616 23.0695 18.5223C23.8284 17.183 24.5427 16.067 25.2123 15.1741C25.9043 14.2812 26.7302 13.3549 27.69 12.3951C28.6721 11.4353 29.6766 10.6763 30.7034 10.1183C31.7525 9.53794 32.9467 9.06919 34.286 8.71205C35.6253 8.33259 37.0538 8.14286 38.5717 8.14286H47.1431V1.71428C47.1431 1.40178 47.2436 1.14509 47.4445 0.944193C47.6453 0.743302 47.902 0.642856 48.2145 0.642856C48.4824 0.642856 48.7503 0.754463 49.0181 0.977678L59.6989 11.6585Z"
        fill="#DB2750" />
</svg>
    