<svg width="52" height="53" viewBox="0 0 52 53" fill="none" xmlns="http://www.w3.org/2000/svg">
    <path
        d="M13.0695 4.3058C17.0204 2.00669 21.3284 0.85714 25.9936 0.85714C30.6588 0.85714 34.9557 2.00669 38.8842 4.3058C42.8351 6.60491 45.9601 9.72991 48.2592 13.6808C50.5583 17.6094 51.7079 21.9062 51.7079 26.5714C51.7079 31.2366 50.5583 35.5446 48.2592 39.4955C45.9601 43.4241 42.8351 46.5379 38.8842 48.8371C34.9557 51.1362 30.6588 52.2857 25.9936 52.2857C21.3284 52.2857 17.0204 51.1362 13.0695 48.8371C9.14092 46.5379 6.02708 43.4241 3.72797 39.4955C1.42887 35.5446 0.279312 31.2366 0.279312 26.5714C0.279312 21.9062 1.42887 17.6094 3.72797 13.6808C6.02708 9.72991 9.14092 6.60491 13.0695 4.3058ZM38.8507 28.4129C39.565 28.0112 39.9222 27.3973 39.9222 26.5714C39.9222 25.7455 39.565 25.1317 38.8507 24.7299L20.6365 14.0156C19.9445 13.5915 19.2302 13.5804 18.4936 13.9821C17.7793 14.4062 17.4222 15.0312 17.4222 15.8571V37.2857C17.4222 38.1116 17.7793 38.7366 18.4936 39.1607C18.8507 39.3393 19.2079 39.4286 19.565 39.4286C19.9445 39.4286 20.3016 39.3281 20.6365 39.1272L38.8507 28.4129Z"
        fill="#DB2750" />
</svg>
    